<?xml version="1.0" standalone="no"?>
<!DOCTYPE svg PUBLIC "-//W3C//DTD SVG 20010904//EN"
 "http://www.w3.org/TR/2001/REC-SVG-20010904/DTD/svg10.dtd">
<svg version="1.0" xmlns="http://www.w3.org/2000/svg"
 width="760.000000pt" height="896.000000pt" viewBox="0 0 760.000000 896.000000"
 preserveAspectRatio="xMidYMid meet">
<metadata>
Created by potrace 1.15, written by Peter Selinger 2001-2017
</metadata>
<g transform="translate(0.000000,896.000000) scale(0.100000,-0.100000)"
fill="#000000" stroke="none">
<path d="M720 8951 c0 -5 9 -11 20 -14 11 -3 20 -12 20 -21 0 -15 -17 -21 -47
-17 -20 3 -54 -19 -48 -30 4 -5 10 -7 15 -4 4 3 14 -3 21 -12 13 -15 10 -16
-35 -11 -30 4 -52 12 -58 22 -12 21 -60 22 -52 2 3 -8 19 -19 35 -25 26 -9 31
-15 28 -37 0 -3 10 -14 22 -25 24 -21 82 -25 133 -10 68 21 149 40 155 36 4
-2 63 -9 131 -15 69 -6 127 -13 129 -16 3 -2 -3 -10 -13 -17 -16 -12 -16 -14
-3 -26 15 -11 76 -16 372 -27 138 -5 297 -13 387 -20 l87 -7 20 34 20 34 103
0 103 0 3 -27 c3 -23 9 -28 40 -34 20 -3 52 -11 69 -17 25 -8 45 -8 83 2 46
12 53 11 71 -5 13 -12 23 -15 27 -8 10 15 128 2 172 -19 24 -10 78 -17 166
-21 72 -3 143 -10 158 -16 15 -5 41 -10 58 -10 16 0 44 -6 61 -14 32 -14 107
-27 160 -28 27 -1 38 -23 15 -30 -9 -3 -8 -10 5 -23 15 -14 37 -18 115 -20 64
-1 110 -8 134 -18 39 -18 64 -14 86 12 8 9 11 11 8 4 -8 -15 14 -22 93 -27 52
-3 70 -9 92 -30 15 -15 39 -26 54 -26 43 0 119 -22 132 -39 7 -9 13 -23 13
-31 0 -24 147 -80 208 -80 17 0 32 -4 32 -9 0 -4 34 -11 75 -14 49 -3 80 -11
91 -21 14 -14 51 -22 78 -17 17 4 56 -9 56 -18 0 -4 -12 -13 -27 -20 -20 -9
-28 -9 -33 0 -5 8 -13 8 -26 1 -13 -7 -65 -7 -154 0 -74 5 -151 7 -170 4 -52
-7 -238 10 -255 24 -25 21 -93 25 -413 24 l-313 0 -24 -30 c-14 -16 -24 -34
-25 -39 0 -14 65 -35 124 -40 27 -3 52 -9 55 -13 3 -5 25 -12 48 -16 24 -3 69
-19 100 -34 52 -24 68 -27 156 -25 53 1 97 -2 97 -7 0 -5 26 -11 58 -15 71 -8
174 -33 182 -44 12 -18 104 -35 230 -40 150 -7 176 -15 232 -77 44 -47 56 -69
35 -61 -9 3 -17 1 -19 -4 -2 -6 -62 -16 -133 -22 -114 -11 -130 -14 -129 -29
1 -10 -4 -18 -11 -18 -7 0 -15 -7 -19 -15 -3 -8 -10 -15 -16 -15 -5 0 -10 7
-10 15 0 8 -7 15 -15 15 -8 0 -15 -4 -15 -10 0 -14 -47 -13 -52 1 -5 14 -238
-9 -238 -23 0 -12 -74 -10 -87 3 -14 14 -116 14 -176 0 -27 -6 -52 -9 -57 -6
-4 2 -13 -2 -20 -10 -11 -13 -34 -15 -129 -12 -64 2 -125 8 -136 14 -11 6 -85
14 -165 17 -79 4 -153 9 -165 11 -11 2 -51 7 -90 11 -38 3 -113 9 -165 14 -52
4 -115 13 -140 19 -25 5 -73 10 -107 11 -34 0 -86 6 -115 13 -41 11 -70 12
-124 4 -64 -9 -76 -8 -110 10 -35 18 -115 40 -212 58 -18 4 -39 14 -48 22 -11
12 -36 15 -105 14 -51 -1 -89 2 -89 8 0 5 -23 14 -50 20 -55 12 -130 15 -130
5 0 -3 9 -19 21 -35 23 -33 45 -37 53 -11 3 9 3 -5 1 -32 -6 -59 -10 -64 -35
-48 -11 7 -33 12 -49 12 -16 0 -31 5 -33 12 -4 12 -24 16 -96 20 -25 2 -47 9
-52 18 -7 11 -29 15 -84 15 -41 1 -78 4 -82 8 -11 10 -24 9 -24 -3 0 -5 5 -10
10 -10 18 0 45 -35 48 -63 3 -32 -2 -33 -64 -7 -26 12 -53 19 -60 16 -7 -3
-26 9 -43 26 -23 23 -35 29 -54 24 -23 -5 -25 -11 -26 -71 -1 -62 0 -65 22
-63 23 2 87 -36 87 -52 0 -5 -14 -19 -31 -31 -23 -16 -53 -24 -118 -30 -52 -5
-87 -4 -89 2 -2 5 -21 9 -42 9 -21 0 -40 5 -42 11 -2 6 -27 11 -56 12 -42 0
-55 -4 -70 -23 -19 -23 -21 -23 -63 -10 -24 7 -47 13 -50 12 -3 0 -28 -2 -55
-3 -67 -2 -84 -7 -84 -28 0 -25 -10 -32 -31 -21 -14 8 -21 6 -30 -12 -7 -13
-18 -26 -25 -31 -7 -4 -16 -27 -19 -51 -6 -34 -16 -53 -50 -85 -28 -27 -49
-39 -59 -35 -23 9 -20 24 4 24 21 0 27 15 10 25 -5 3 -21 3 -35 -1 -24 -6 -25
-9 -25 -90 0 -78 1 -84 21 -84 12 0 18 4 13 11 -11 19 91 5 111 -14 9 -10 30
-17 46 -17 34 0 119 -19 134 -30 6 -4 82 -10 170 -13 88 -3 147 -2 130 3 -16
4 -67 8 -112 9 -48 0 -83 5 -83 11 0 6 5 10 11 10 5 0 7 5 4 10 -3 6 4 10 17
10 18 0 20 -2 8 -10 -10 -6 -3 -8 23 -3 24 4 37 2 37 -6 0 -6 15 -11 33 -11
18 0 59 -7 90 -15 69 -18 155 -19 194 -3 19 7 128 11 333 12 238 1 310 4 329
15 26 15 48 15 316 9 99 -3 201 -1 227 2 26 4 45 3 42 -2 -3 -4 -2 -8 3 -8 12
1 60 29 49 30 -4 0 2 9 15 19 13 11 24 27 24 38 0 10 5 17 12 16 7 -2 10 4 7
12 -6 14 10 31 76 85 17 14 44 37 60 53 16 15 34 27 39 27 5 0 7 8 4 19 -3 12
3 24 18 35 30 21 40 20 92 -3 43 -20 61 -25 87 -21 11 1 9 4 -5 10 -18 8 -18
9 6 9 14 1 29 -2 33 -6 4 -4 46 -7 94 -7 l87 1 -80 -7 c-44 -3 -64 -8 -45 -9
33 -3 33 -3 10 -11 -28 -9 -21 -11 53 -15 43 -2 50 12 10 18 -16 2 -2 5 29 6
33 0 60 -4 64 -10 4 -8 26 -9 63 -6 78 9 700 -20 791 -37 41 -7 89 -20 107
-29 18 -10 37 -17 43 -17 18 0 102 -59 137 -97 56 -58 79 -122 46 -124 -10 0
-13 -3 -7 -5 7 -3 8 -19 5 -42 -6 -35 -8 -37 -56 -45 -28 -4 -56 -14 -63 -21
-11 -11 -6 -15 30 -24 24 -6 66 -14 93 -17 53 -8 115 -32 115 -45 0 -5 -30
-12 -67 -15 -38 -4 -93 -13 -123 -21 -30 -8 -85 -14 -122 -14 -37 0 -68 -4
-68 -9 0 -16 -55 -29 -189 -46 -56 -7 -74 -17 -108 -63 -15 -20 -33 -41 -39
-47 -7 -5 -15 -23 -18 -38 -6 -25 -4 -27 11 -19 18 10 96 27 168 36 22 3 57
10 77 15 20 5 39 6 42 4 3 -3 29 4 58 15 29 11 83 25 120 31 36 6 85 18 108
26 49 17 125 21 100 5 -10 -6 14 -8 70 -4 122 7 169 14 175 25 8 12 162 12
169 0 3 -5 -16 -12 -42 -16 -26 -3 -58 -9 -72 -11 -23 -4 -22 -3 5 11 17 8 22
13 12 10 -10 -3 -30 -5 -44 -5 -15 0 -23 -3 -19 -7 3 -4 -6 -13 -21 -20 l-28
-13 33 5 c17 2 32 0 32 -5 0 -10 -18 -16 -75 -25 -22 -3 -46 -10 -54 -14 -22
-14 196 -2 257 13 32 8 118 20 192 26 74 6 146 16 160 22 26 11 486 20 530 10
23 -5 23 -6 5 -13 -12 -5 12 -7 55 -3 95 6 86 6 150 4 30 -1 82 -10 115 -21
33 -10 100 -21 149 -24 49 -3 97 -10 107 -15 22 -13 49 -13 49 -1 0 5 -19 16
-42 24 l-43 15 39 1 c43 1 118 -18 127 -32 4 -6 25 -7 48 -3 33 5 45 2 60 -13
19 -19 18 -19 -57 -16 -43 1 -67 1 -54 -2 12 -2 20 -8 17 -13 -3 -5 -20 -7
-38 -3 -26 5 -30 3 -19 -8 10 -11 21 -11 57 -1 38 10 51 10 75 -3 16 -8 47
-15 69 -15 22 0 52 -5 68 -10 25 -9 26 -9 10 4 -10 8 -14 17 -9 20 15 9 43 -4
35 -17 -4 -6 0 -8 10 -4 12 4 14 2 10 -10 -5 -13 -2 -15 15 -11 12 4 22 3 22
-1 0 -17 -61 -50 -103 -56 -26 -4 -47 -11 -47 -16 0 -5 -11 -9 -24 -9 -36 0
-41 -17 -9 -28 26 -10 24 -10 -22 -11 -27 -1 -63 -8 -80 -17 -21 -11 -46 -14
-85 -10 -33 3 -43 2 -25 -3 29 -7 29 -7 -14 -13 -69 -10 -71 -25 -5 -38 33 -6
81 -15 107 -21 27 -5 70 -9 97 -9 29 0 50 -5 52 -12 3 -9 11 -9 34 0 24 10
183 18 219 12 37 -7 176 -3 178 5 2 6 23 5 56 -3 29 -7 76 -13 104 -13 55 -1
50 -4 -25 -14 -68 -9 -60 -25 12 -25 33 0 60 -4 60 -10 0 -10 -73 -15 -185
-13 -33 1 -49 -1 -35 -4 14 -3 28 -10 32 -16 4 -7 41 -11 95 -10 48 1 90 -3
93 -7 3 -5 50 -4 105 2 55 6 131 11 168 13 37 1 71 5 74 9 4 3 17 6 30 6 32 0
20 17 -17 25 -17 4 -35 15 -40 25 -13 24 -13 40 0 20 7 -12 12 -12 22 -2 7 7
38 12 74 12 50 0 63 3 66 18 4 15 -1 17 -41 14 -39 -3 -50 0 -70 22 -14 14
-34 26 -45 27 -15 0 -8 7 23 22 33 16 45 19 48 10 5 -14 83 -18 83 -4 0 4 54
14 120 21 l120 13 0 218 0 219 -40 0 c-22 0 -40 -4 -40 -10 0 -14 -157 -13
-162 1 -2 7 -49 13 -128 15 -84 3 -126 8 -132 17 -12 19 -171 16 -195 -4 -10
-9 -29 -19 -43 -22 -14 -3 -44 -13 -68 -21 -41 -16 -56 -15 -112 0 l-25 7 24
-22 c29 -25 29 -25 -39 -5 -36 11 -49 18 -40 24 9 5 5 8 -11 8 -27 -1 -122 33
-127 45 -2 4 -8 5 -13 1 -5 -3 -19 2 -31 10 -12 9 -28 16 -36 16 -7 0 -22 9
-34 20 -12 11 -28 20 -35 20 -21 0 -135 63 -140 78 -3 6 -11 12 -18 12 -7 0
-18 7 -26 16 -7 8 -21 13 -31 11 -10 -3 -21 0 -25 5 -4 7 -1 8 7 3 9 -5 11 -4
6 3 -9 15 -36 16 -36 2 0 -5 -5 -10 -12 -10 -6 0 -3 9 7 20 18 19 17 20 -6 20
-18 0 -20 3 -10 9 8 5 11 16 8 25 -9 22 2 46 20 46 9 0 13 6 9 15 -3 9 0 15 9
15 8 0 15 -6 15 -14 0 -8 7 -17 16 -20 14 -5 14 -8 -3 -24 -10 -9 -13 -13 -6
-8 7 4 21 5 30 1 30 -13 43 -14 50 -3 4 7 1 8 -7 3 -8 -5 -11 -3 -8 6 3 8 13
13 23 12 12 -1 14 2 6 10 -7 7 -16 5 -31 -8 -11 -10 -20 -13 -20 -7 0 6 5 14
11 18 8 5 6 10 -5 16 -9 5 -21 6 -26 3 -6 -3 -10 -2 -10 4 0 5 4 12 10 16 5 3
6 13 3 22 -5 12 -2 15 10 10 9 -3 17 -2 17 4 0 5 8 13 18 16 9 4 22 14 29 22
10 13 12 13 13 2 0 -9 7 -5 21 10 l21 24 18 -23 c10 -12 21 -18 24 -13 3 5 -1
15 -10 22 -14 12 -14 14 3 20 30 12 43 10 43 -7 0 -8 7 -22 15 -30 8 -9 15
-19 15 -24 0 -16 -58 -50 -82 -48 -21 2 -78 -27 -78 -39 0 -3 11 2 25 11 28
18 55 21 55 5 0 -6 14 1 31 15 46 39 71 33 27 -5 l-23 -20 25 12 c13 7 31 18
38 26 7 7 20 13 28 13 8 0 14 4 14 9 0 5 16 12 35 15 23 5 35 13 35 23 0 15
-2 15 -18 0 -10 -10 -25 -17 -33 -17 -8 0 -25 -7 -37 -16 -12 -8 -28 -14 -34
-12 -7 3 13 19 44 36 31 18 59 39 62 48 4 10 -9 4 -31 -13 -48 -37 -73 -47
-73 -29 0 8 3 16 8 19 4 2 2 2 -5 1 -13 -3 -27 13 -28 31 -1 11 53 44 74 45 7
0 3 -8 -10 -20 -13 -10 -19 -19 -12 -20 7 0 10 -7 6 -16 -4 -12 5 -9 36 10 22
14 41 23 41 20 0 -4 8 0 18 9 13 12 44 16 152 16 74 1 151 -4 170 -9 19 -6
107 -22 195 -35 89 -13 182 -33 209 -44 26 -12 66 -24 89 -27 23 -4 83 -26
133 -49 50 -24 105 -46 122 -50 l32 -7 0 831 0 831 -2992 0 c-2581 0 -2999 -2
-3033 -15 -52 -19 -114 -19 -158 0 -30 12 -96 15 -367 15 -184 0 -330 -4 -330
-9z m4843 -1808 c46 -31 132 -78 220 -120 58 -28 76 -47 35 -38 -214 46 -302
82 -278 111 8 8 4 13 -11 17 -15 4 -20 11 -15 22 5 13 0 12 -21 -4 -36 -29
-44 -16 -8 14 17 13 31 24 33 25 1 0 21 -12 45 -27z"/>
<path d="M12 8854 c-10 -5 -10 -9 -1 -20 8 -10 8 -14 0 -14 -8 0 -11 -73 -11
-253 l0 -254 40 -18 c54 -25 98 -58 93 -71 -2 -6 3 -17 12 -24 8 -7 15 -21 15
-32 0 -15 -5 -18 -22 -13 -13 4 -27 11 -33 16 -5 5 -20 9 -32 9 -13 0 -35 7
-49 16 l-25 17 1 -272 c1 -309 -10 -275 100 -284 45 -4 61 -1 85 17 17 11 39
22 50 23 105 13 109 12 132 -15 12 -15 22 -22 23 -16 0 7 11 9 26 6 24 -4 25
-3 14 17 -18 35 -6 50 46 53 39 2 48 7 55 26 8 21 5 25 -22 35 -21 8 -29 17
-26 29 6 20 -18 14 -49 -13 -17 -16 -24 -17 -52 -7 -18 7 -32 16 -32 20 0 15
35 25 75 20 25 -2 45 0 49 7 5 8 13 8 29 -1 12 -7 38 -13 59 -15 30 -2 35 0
31 15 -2 10 10 32 30 55 31 33 40 37 83 37 53 0 131 20 142 36 11 16 122 31
192 26 46 -3 77 1 104 12 68 28 134 17 172 -30 19 -23 31 -27 106 -31 77 -5
88 -3 115 17 29 21 38 22 272 21 216 0 241 2 230 15 -19 23 -59 41 -104 47
-22 4 -77 13 -123 22 -61 12 -87 13 -97 5 -7 -6 -44 -11 -82 -11 -37 0 -90 -1
-118 -2 -27 -1 -67 1 -88 5 -23 4 -35 3 -31 -3 9 -15 -206 -8 -238 8 -15 7
-36 13 -48 13 -11 0 -20 5 -20 10 0 6 -15 10 -34 10 -19 0 -45 4 -58 9 -14 5
-50 4 -88 -2 -81 -13 -188 -11 -217 4 -22 12 -38 76 -22 93 4 5 -1 22 -12 37
-11 16 -17 34 -14 39 4 6 9 27 11 46 3 26 1 35 -8 31 -7 -2 -28 4 -45 15 -18
11 -37 17 -42 14 -10 -6 -21 16 -21 41 0 13 8 14 43 9 23 -3 37 -3 32 1 -6 5
-18 19 -26 33 -14 22 -22 25 -63 22 -46 -4 -46 -5 -43 -36 2 -17 2 -23 0 -13
-4 14 -16 17 -84 17 -80 0 -90 4 -65 24 8 6 17 28 20 49 8 43 -2 50 -94 61
-77 10 -139 28 -155 47 -12 13 -13 20 -2 42 6 15 19 28 27 28 8 1 22 3 30 4 8
1 21 3 28 4 6 0 12 7 12 15 0 9 20 15 68 20 51 5 73 12 86 27 11 13 25 19 37
16 20 -5 23 0 11 20 -5 8 -32 12 -77 11 -39 -1 -122 1 -185 5 -63 3 -121 4
-128 1z m308 -525 c0 -8 5 -8 15 1 12 10 18 10 30 0 8 -6 19 -9 25 -5 6 4 24
-8 40 -25 33 -35 28 -59 -14 -61 -74 -3 -120 2 -136 16 -9 8 -22 15 -28 15
-20 0 -13 31 11 51 25 20 57 25 57 8z"/>
<path d="M956 8719 c5 -9 -7 -10 -43 -7 -37 4 -61 0 -88 -13 -40 -19 -115 -27
-151 -15 -26 8 -60 -4 -94 -34 l-24 -21 90 2 c50 1 96 -1 103 -5 20 -13 77 3
105 29 14 13 42 27 60 31 40 7 83 44 52 44 -10 0 -14 -5 -10 -11z"/>
<path d="M1653 8438 c-19 -5 -33 -15 -33 -23 0 -8 -6 -15 -12 -15 -8 -1 -5 -6
6 -15 10 -7 15 -19 11 -24 -3 -6 -3 -20 0 -31 5 -15 12 -19 30 -14 17 4 27 0
37 -15 7 -12 18 -21 25 -21 7 0 17 -8 22 -19 9 -16 21 -18 123 -15 62 2 156 7
208 10 52 3 131 5 175 5 44 -1 108 5 142 12 34 7 108 15 165 16 57 2 153 5
213 7 61 2 136 3 168 3 98 -1 245 21 251 38 4 10 19 14 54 12 26 -1 53 0 59 4
15 10 101 7 158 -4 28 -6 68 -9 90 -7 l40 4 -30 13 c-75 33 -261 53 -276 30
-6 -10 -11 -10 -24 1 -25 21 -234 21 -320 -1 -39 -9 -128 -19 -200 -22 -71 -3
-155 -11 -185 -17 -64 -15 -236 -8 -270 10 -13 7 -63 13 -112 14 -67 1 -88 4
-88 15 0 10 -3 11 -14 2 -11 -10 -21 -9 -46 4 -58 30 -307 59 -367 43z"/>
<path d="M2305 8070 c-11 -4 -40 -13 -64 -20 -64 -17 -41 -33 69 -46 25 -3 57
-10 71 -15 17 -7 40 -6 70 0 24 6 76 11 115 11 58 0 73 3 78 17 4 9 2 21 -3
26 -5 5 -67 10 -138 11 -76 2 -137 7 -150 14 -25 14 -21 13 -48 2z"/>
<path d="M164 6830 c0 -10 6 -16 13 -13 17 7 85 -67 78 -85 -3 -10 0 -12 10
-9 8 4 17 1 21 -5 4 -7 3 -8 -4 -4 -7 4 -12 1 -12 -7 0 -8 -7 -20 -15 -27 -13
-10 -15 -9 -15 9 0 14 -6 21 -20 21 -11 0 -20 7 -20 15 0 18 -26 20 -34 3 -3
-7 -3 1 0 17 4 20 3 26 -4 17 -8 -11 -17 -10 -53 7 -48 24 -59 26 -59 11 0 -5
7 -10 15 -10 8 0 15 -4 15 -10 0 -5 -4 -10 -9 -10 -6 0 -13 5 -16 10 -3 6 -18
10 -32 10 -25 0 -25 -1 -9 -19 10 -11 28 -22 41 -25 12 -3 25 -12 28 -20 5
-11 -2 -10 -26 4 -55 34 -57 31 -57 -89 l0 -109 88 -4 c82 -4 112 -1 85 9 -50
18 47 61 157 70 38 3 67 10 64 14 -3 5 12 10 33 10 l38 2 -35 6 c-31 6 -28 8
33 15 37 4 67 12 67 17 0 5 7 9 15 9 18 0 89 32 93 43 2 4 11 7 20 8 11 0 12
3 5 6 -7 2 -41 -9 -75 -25 -35 -16 -74 -33 -88 -37 -23 -7 -23 -6 6 19 18 14
37 26 43 26 6 0 11 5 11 10 0 14 -12 13 -35 -4 -11 -7 -60 -16 -112 -19 -101
-6 -100 -6 -94 53 2 12 0 13 -7 1 -7 -10 -20 -2 -53 35 -24 26 -44 52 -43 58
0 6 -11 11 -25 12 -19 1 -27 -4 -27 -16z"/>
<path d="M4040 6570 c15 -5 -56 -8 -168 -7 -105 1 -193 -1 -195 -5 -2 -7 -116
-27 -185 -33 -34 -2 -75 -42 -69 -67 2 -7 2 -10 0 -5 -10 16 -22 5 -34 -28 -7
-20 -22 -41 -34 -49 -11 -7 -38 -40 -60 -72 -75 -112 -187 -191 -241 -170 -15
6 -15 8 2 28 19 21 19 21 -4 9 -20 -11 -32 -9 -72 8 -39 17 -68 21 -153 20
-58 0 -123 5 -145 12 -37 11 -40 15 -39 43 2 29 0 31 -36 34 -21 2 -44 -1 -51
-7 -6 -5 -18 -6 -25 -2 -18 12 41 40 98 48 40 6 42 7 21 15 -15 5 -32 5 -45
-1 -40 -18 -53 -19 -81 -4 -16 8 -56 17 -89 19 -33 1 -90 6 -127 10 -59 6 -68
5 -68 -10 0 -18 -50 -20 -210 -7 -64 5 -78 8 -57 14 15 4 27 12 27 18 0 6 -7
8 -16 5 -9 -3 -27 -6 -40 -6 -15 0 -24 -6 -24 -16 0 -8 -4 -12 -10 -9 -5 3
-10 15 -10 26 0 12 -7 19 -20 19 -13 0 -20 -7 -20 -19 0 -11 -4 -23 -10 -26
-6 -4 -10 5 -10 19 0 19 -5 26 -19 26 -12 0 -21 9 -25 25 -6 25 -8 26 -88 29
-42 2 -33 -11 13 -19 29 -5 39 -11 35 -21 -3 -8 -1 -14 4 -14 6 0 9 -19 9 -42
-1 -24 -3 -35 -6 -25 -4 14 -16 17 -79 17 -43 0 -74 4 -74 10 0 6 -35 10 -85
10 -50 0 -85 -4 -85 -10 0 -5 -18 -10 -40 -10 -36 0 -40 -2 -40 -25 0 -22 -4
-25 -40 -25 -29 0 -40 -4 -40 -15 0 -13 -21 -15 -130 -15 -126 0 -131 -1 -139
-22 -5 -13 -18 -32 -30 -42 -19 -17 -21 -17 -21 -3 0 13 -9 17 -40 17 -31 0
-40 -4 -40 -17 0 -13 -7 -10 -31 13 -29 28 -33 29 -117 26 -86 -3 -86 -3 -125
-43 -27 -28 -47 -39 -68 -39 -27 0 -29 2 -29 40 0 35 -3 40 -24 40 -15 0 -26
-7 -29 -20 -3 -11 -10 -20 -17 -20 -7 0 -14 9 -17 20 -6 23 -19 26 -27 8 -3
-7 -3 -3 0 10 5 20 2 22 -32 22 -21 0 -45 7 -55 16 -12 10 -25 14 -36 9 -16
-6 -16 -8 5 -18 12 -5 22 -14 22 -19 0 -4 7 -8 15 -8 8 0 15 -4 15 -10 0 -5
-4 -10 -9 -10 -6 0 -13 5 -16 10 -3 6 -17 10 -30 10 -15 0 -26 7 -30 20 -8 24
-41 19 -63 -8 -10 -14 -17 -14 -45 -4 -36 13 -79 15 -114 6 -22 -6 -23 -11
-23 -114 l0 -107 68 -13 c37 -7 97 -15 135 -17 65 -5 90 -18 45 -25 -13 -2 7
-7 44 -12 50 -6 67 -12 71 -25 2 -9 19 -24 37 -33 41 -20 23 -33 -27 -19 -58
16 -85 12 -31 -5 26 -8 50 -19 53 -24 4 -6 82 -10 193 -11 174 -1 305 -9 394
-25 25 -4 47 -1 69 10 18 9 51 17 73 17 23 1 33 3 24 6 -28 7 -21 31 12 38 16
4 34 4 39 1 5 -4 16 0 23 8 8 7 24 17 36 20 13 4 22 16 22 27 0 14 7 19 25 19
16 0 25 6 25 15 0 9 10 20 22 25 13 5 34 18 48 27 15 11 21 13 16 4 -6 -10 -4
-12 10 -7 22 6 69 -28 60 -43 -4 -5 3 -16 15 -24 15 -11 17 -16 7 -20 -11 -5
-11 -7 0 -15 22 -15 10 -44 -26 -65 -28 -16 -38 -18 -59 -8 -14 6 -27 20 -30
31 -5 18 -7 18 -21 3 -14 -14 -14 -17 3 -29 10 -8 15 -14 10 -14 -4 0 0 -9 10
-20 20 -22 35 -26 35 -10 0 6 -7 10 -15 10 -8 0 -15 5 -15 10 0 7 6 8 17 1 21
-11 28 -81 10 -93 -7 -4 -37 -6 -67 -4 -42 3 -47 2 -20 -4 19 -4 26 -8 15 -9
-14 -1 -16 -4 -7 -9 7 -5 -18 -8 -57 -8 -38 1 -67 4 -65 8 2 3 -26 10 -62 13
-48 6 -150 -1 -365 -25 -164 -17 -302 -29 -307 -26 -11 7 -139 -32 -147 -44
-4 -6 -20 -10 -36 -10 -18 0 -39 -9 -53 -23 -13 -13 -37 -24 -56 -25 -19 -1
-38 -9 -43 -17 -4 -8 -16 -15 -25 -15 -26 -1 -69 -37 -57 -49 9 -9 25 -5 102
31 24 12 53 5 53 -12 0 -5 -5 -10 -11 -10 -6 0 -9 -7 -5 -15 3 -8 2 -14 -2
-13 -4 1 -17 -4 -29 -12 -25 -16 -19 -40 11 -40 20 1 20 1 2 12 -17 9 -14 13
25 33 24 12 56 25 72 29 15 3 27 11 27 16 0 6 9 10 21 10 11 0 28 4 38 10 22
11 317 22 305 10 -5 -4 -18 -10 -29 -13 -11 -3 31 -5 94 -6 62 0 143 -8 180
-16 101 -22 258 -48 341 -55 41 -4 84 -10 95 -14 14 -5 16 -5 7 2 -11 7 -11
10 2 15 9 4 22 4 30 1 8 -3 17 -1 20 5 9 13 68 3 82 -15 5 -7 23 -16 40 -19
23 -5 26 -4 14 5 -12 10 -10 11 10 5 14 -3 34 -8 45 -9 11 -2 25 -4 30 -5 6
-1 -1 -7 -14 -12 -14 -5 -31 -7 -38 -5 -7 3 -13 1 -13 -4 0 -13 87 -13 92 0 2
7 18 5 43 -6 22 -10 46 -17 53 -15 7 1 15 -5 18 -13 3 -8 12 -17 20 -20 9 -4
12 -2 8 5 -8 13 25 4 68 -17 15 -8 33 -14 41 -14 7 0 26 -13 42 -30 16 -16 36
-30 46 -30 9 0 22 -7 29 -15 7 -8 18 -15 25 -15 6 0 20 -9 30 -20 10 -11 22
-20 27 -20 6 0 21 -9 35 -20 22 -17 23 -21 9 -26 -9 -3 -23 -1 -31 6 -7 6 -24
10 -37 8 l-23 -4 25 -12 c31 -14 60 -37 60 -47 0 -4 -28 -4 -62 -1 -59 6 -61
6 -38 -8 14 -9 37 -15 52 -16 15 0 30 -5 33 -10 5 -7 -65 -10 -215 -10 -122 1
-224 -1 -226 -3 -7 -7 57 -43 91 -52 106 -25 354 -43 364 -27 4 6 77 13 176
16 94 4 202 10 240 16 39 5 142 14 229 20 152 10 209 19 135 21 l-34 1 30 7
c28 7 74 29 85 41 16 17 93 32 134 26 28 -5 46 -3 46 3 0 5 8 11 18 13 16 3
-49 9 -125 11 -18 0 -33 2 -33 4 0 10 73 33 105 33 19 0 35 4 35 9 0 4 12 7
28 4 24 -3 25 -2 7 7 -16 8 -13 9 18 6 20 -3 37 -1 37 4 0 5 -15 10 -32 12
-41 4 -42 21 -2 29 21 5 23 7 9 9 -11 1 -28 1 -39 0 -10 -1 -15 3 -12 8 3 6
31 11 61 11 55 0 88 10 85 27 -1 5 6 14 16 19 10 6 29 20 43 32 26 23 101 53
132 53 10 0 22 7 27 16 5 8 44 25 88 36 69 18 109 21 309 21 231 1 325 -6 325
-24 0 -5 -7 -9 -16 -9 -8 0 -12 -4 -9 -10 3 -5 19 -10 34 -10 15 0 31 -4 37
-9 12 -13 159 -43 193 -40 14 2 42 -2 61 -8 77 -25 168 -34 234 -23 36 6 138
12 227 15 148 5 167 7 216 31 54 25 55 25 123 10 41 -10 86 -13 113 -10 29 4
47 2 51 -5 5 -7 20 -9 42 -5 22 4 34 2 34 -5 0 -6 -9 -11 -20 -11 -11 0 -20
-4 -20 -9 0 -5 -20 -12 -45 -15 -66 -10 -55 -21 17 -19 l63 2 -65 -14 c-36 -7
-74 -11 -85 -9 -16 4 -17 3 -5 -5 28 -19 -8 -24 -194 -29 -98 -3 -58 -11 75
-15 104 -4 131 -1 164 14 55 24 143 39 237 39 75 0 100 -11 61 -28 -32 -13
108 -20 211 -10 54 5 112 6 127 3 17 -4 29 -2 29 3 0 13 54 31 100 33 19 1 49
10 66 20 18 11 49 18 80 18 43 -1 143 12 214 27 14 3 61 8 106 11 66 5 83 3
96 -11 21 -21 30 -20 78 4 22 11 40 18 40 14 0 -3 12 1 26 11 30 19 110 22
132 5 1 -2 8 -3 15 -4 6 0 13 -11 15 -23 2 -12 10 -22 20 -22 9 0 33 -4 52 -9
19 -5 42 -11 50 -13 12 -3 15 6 14 48 -2 52 -31 143 -47 143 -4 0 -19 11 -33
25 -14 14 -37 25 -52 25 -15 0 -36 7 -46 15 -10 8 -22 12 -26 10 -4 -3 -13 2
-20 10 -7 8 -21 15 -31 15 -12 0 -23 10 -29 25 -5 14 -14 25 -19 25 -6 0 -8 7
-5 15 4 10 2 13 -8 10 -8 -3 -28 7 -44 22 -28 26 -32 27 -145 28 -97 0 -120 3
-136 18 -11 9 -32 17 -47 17 -15 0 -25 4 -22 9 9 14 -133 31 -209 25 -38 -3
-115 -7 -170 -9 -277 -11 -299 -13 -313 -32 -7 -10 -14 -18 -15 -17 -1 0 -13
6 -26 13 -13 7 -21 9 -18 4 7 -10 -85 -9 -102 1 -6 4 -11 3 -11 -2 0 -5 -13
-8 -30 -7 -16 1 -30 -1 -30 -5 0 -4 -9 -10 -20 -13 -11 -3 -20 0 -20 5 0 7 -4
7 -12 1 -7 -6 -33 -10 -58 -11 -36 0 -40 2 -20 8 31 10 12 13 -65 10 -33 -1
-63 -7 -66 -12 -4 -7 -8 -6 -10 1 -3 9 -11 9 -29 2 -15 -6 -19 -11 -10 -12 19
-2 -75 -17 -117 -18 -24 -1 -33 3 -33 15 0 14 -3 14 -15 4 -8 -7 -15 -18 -15
-25 0 -7 -13 -15 -30 -17 -32 -5 -42 8 -12 15 40 10 -228 -27 -298 -41 -84
-17 -201 9 -334 74 -28 13 -56 24 -63 24 -7 0 -21 4 -31 9 -9 5 -44 20 -77 32
-33 13 -67 29 -76 36 -8 7 -21 13 -28 13 -7 0 -25 8 -39 19 -33 22 -77 37
-157 51 -33 6 -80 15 -105 20 -62 13 -147 24 -197 24 -24 1 -43 3 -43 6 0 3
-17 6 -37 8 -21 1 -42 7 -47 12 -6 6 -16 4 -28 -7 -16 -15 -18 -15 -18 0 0 10
-7 15 -18 12 -9 -1 -34 3 -55 10 -20 7 -65 11 -99 9 -99 -6 -143 -4 -146 7 -2
5 -16 9 -32 9 -15 0 -39 6 -53 13 -25 13 -25 15 -9 31 16 17 16 18 -7 11 -16
-5 -21 -4 -17 4 4 6 16 11 27 11 10 0 24 9 31 21 7 11 34 30 60 41 26 11 45
24 42 29 -3 5 1 6 9 3 8 -3 22 2 30 11 9 8 35 24 57 34 23 10 40 22 38 27 -2
5 16 18 40 28 23 11 42 25 42 31 0 7 20 15 45 19 25 3 84 19 130 36 88 30 177
43 430 61 113 7 237 24 211 28 -5 0 -3 7 3 15 14 16 -19 31 -89 41 -25 3 -58
9 -74 12 -19 3 -26 2 -22 -6 12 -18 -16 -12 -31 7 -8 9 -12 11 -8 5 3 -7 1
-13 -4 -13 -6 0 -11 5 -11 10 0 6 -12 10 -27 9 l-28 -1 25 -8z"/>
<path d="M0 5376 c0 -107 -1 -106 88 -106 108 1 210 25 281 68 2 1 2 5 -1 8
-4 3 -17 -1 -30 -9 -12 -9 -41 -19 -63 -22 -22 -4 -62 -13 -89 -21 -27 -8 -68
-14 -90 -13 l-41 1 45 13 c25 7 39 13 33 14 -7 1 -13 6 -13 11 0 6 17 8 43 4
30 -4 38 -3 27 5 -8 5 -12 12 -10 14 8 6 131 47 170 57 l35 8 -31 1 c-17 0
-51 -6 -74 -14 -23 -8 -61 -15 -85 -15 -23 0 -45 -3 -49 -7 -11 -12 -63 -10
-63 2 0 6 12 11 26 12 14 0 27 6 29 12 2 6 10 11 18 11 8 0 11 6 8 15 -4 8
-13 15 -21 15 -8 0 -11 -4 -8 -10 3 -5 -1 -10 -10 -10 -9 0 -13 5 -10 10 3 6
-2 10 -12 10 -11 0 -23 4 -28 9 -6 4 -25 11 -42 14 l-33 7 0 -94z"/>
<path d="M7376 5224 c-11 -28 -6 -38 7 -19 12 16 15 12 20 -36 5 -47 11 -59
50 -94 23 -22 48 -52 55 -68 6 -15 23 -32 38 -37 53 -20 54 -18 54 94 0 120
-5 143 -27 124 -12 -10 -14 -9 -11 4 1 9 0 17 -4 17 -26 3 -39 0 -35 -6 3 -5
-17 -8 -45 -8 -40 0 -54 5 -68 23 -22 26 -26 27 -34 6z"/>
<path d="M5449 4833 c-1 -5 -1 -10 -1 -13 0 -3 -72 -4 -160 -2 -89 2 -164 -1
-167 -5 -11 -15 -78 -33 -127 -34 -46 0 -139 -27 -102 -28 9 -1 23 -7 30 -14
7 -7 33 -13 58 -13 91 -1 236 -14 275 -23 54 -14 132 -14 158 1 26 13 154 18
180 6 13 -7 17 -4 17 9 1 17 1 17 11 1 5 -10 18 -18 28 -18 22 0 36 29 21 44
-5 5 -10 19 -10 31 0 12 -6 29 -12 38 -15 20 -106 35 -116 20 -4 -5 -20 -13
-36 -17 -23 -6 -27 -4 -23 8 4 10 1 16 -8 16 -8 0 -16 -3 -16 -7z"/>
<path d="M7573 4823 c-4 -10 -10 -21 -15 -24 -5 -3 -5 -24 1 -48 9 -40 8 -41
-12 -35 -19 6 -20 5 -10 -8 7 -8 9 -18 5 -23 -4 -4 3 -2 16 4 12 6 22 8 22 4
0 -5 -12 -14 -27 -20 -16 -7 -50 -22 -78 -34 -59 -25 -134 -71 -135 -81 -1
-18 -41 -47 -57 -42 -14 5 -15 4 -4 -4 25 -18 -8 -25 -37 -7 l-27 16 23 -20
c26 -23 29 -36 5 -27 -10 4 -14 4 -10 0 3 -4 -10 -19 -31 -35 -37 -27 -37 -27
-55 -8 -11 11 -22 18 -25 14 -3 -3 0 -11 6 -17 19 -19 14 -32 -21 -53 -49 -30
-77 -39 -44 -14 15 11 25 25 22 30 -3 4 -15 -1 -25 -11 -11 -11 -27 -20 -36
-20 -13 0 -14 -3 -5 -14 16 -19 -3 -25 -48 -15 -19 4 -38 6 -43 3 -4 -3 -17 0
-28 6 -22 12 -25 4 -10 -20 8 -12 13 -13 30 -2 23 14 31 15 29 5 -3 -20 2 -27
10 -14 5 7 14 12 19 10 6 -2 -5 -14 -24 -27 l-36 -23 8 23 c6 20 5 21 -9 10
-18 -15 -37 -8 -37 13 0 8 -15 31 -32 52 -26 28 -28 35 -13 29 16 -6 15 -2 -8
21 -15 16 -27 33 -27 37 0 4 -20 26 -45 48 -25 22 -45 49 -45 59 0 24 17 25
24 1 4 -11 18 -25 31 -32 14 -7 25 -17 25 -22 0 -13 73 -108 104 -138 22 -20
29 -22 36 -10 7 12 12 12 28 -3 10 -9 22 -17 27 -17 5 0 -7 14 -26 31 -29 26
-38 52 -24 67 2 2 14 -8 28 -22 15 -14 32 -26 39 -26 9 1 8 4 -3 10 -9 5 -54
47 -100 92 -105 103 -189 178 -189 168 0 -4 20 -27 44 -52 24 -25 46 -51 49
-59 4 -10 6 -10 6 -1 1 6 6 12 11 12 6 0 8 -11 4 -25 -4 -15 -2 -25 5 -25 6 0
8 -7 5 -15 -4 -8 -1 -15 5 -15 6 0 11 7 11 15 0 16 12 20 23 8 4 -3 2 -12 -5
-20 -8 -11 -7 -12 5 -7 23 8 57 -29 45 -50 -6 -11 -6 -22 3 -32 15 -18 4 -31
-13 -16 -7 6 -38 44 -68 86 -30 41 -61 75 -67 75 -7 1 -13 7 -13 14 0 7 -10
22 -23 34 l-24 20 -12 -28 c-9 -21 -9 -32 -2 -41 42 -49 58 -69 92 -118 21
-30 47 -66 58 -79 10 -14 17 -30 14 -37 -3 -7 5 -19 16 -26 22 -14 29 -32 9
-26 -6 2 -21 -6 -34 -19 -24 -24 -54 -31 -54 -13 0 6 -8 10 -17 10 -16 -1 -16
-2 1 -15 11 -8 18 -16 15 -17 -39 -25 -81 -39 -96 -34 -9 4 -14 4 -10 0 11
-11 -126 -74 -138 -63 -13 13 -27 11 -23 -3 9 -25 -15 -36 -42 -20 l-25 16 19
-22 c15 -18 16 -23 4 -27 -14 -5 -98 65 -98 82 0 5 -27 32 -60 62 -52 46 -59
55 -48 69 10 14 10 15 -2 5 -21 -20 -26 -17 -49 33 -12 25 -25 44 -28 40 -3
-3 -1 -12 6 -19 6 -8 9 -22 5 -30 -4 -11 11 -31 45 -63 28 -26 48 -51 44 -57
-3 -6 -1 -7 5 -3 7 4 17 -3 24 -18 6 -14 15 -26 19 -26 12 0 119 -108 119
-120 0 -5 -1 -10 -3 -10 -1 0 -17 -4 -35 -9 -24 -7 -32 -7 -30 3 2 6 -28 43
-67 80 -38 38 -61 63 -50 55 11 -8 22 -16 25 -19 24 -25 120 -88 120 -80 0 14
-28 41 -130 124 -47 38 -112 97 -145 130 -65 66 -153 131 -163 121 -7 -7 37
-44 53 -45 6 0 19 -14 30 -30 11 -16 25 -30 30 -31 6 0 20 -13 33 -30 16 -20
19 -27 8 -23 -9 3 -16 1 -16 -5 0 -7 7 -14 15 -17 14 -6 31 -41 27 -56 -1 -4
4 -5 11 -3 17 6 45 -20 96 -90 24 -33 60 -77 79 -97 48 -50 20 -50 -34 1 -23
21 -48 41 -57 44 -8 3 -17 16 -19 29 -2 15 -10 23 -23 24 -11 0 -28 4 -38 9
-15 6 -16 10 -5 16 10 7 8 9 -6 9 -12 0 -16 5 -13 14 4 9 -2 17 -13 21 -10 3
-21 12 -24 20 -3 8 -13 15 -22 15 -13 0 -11 -4 7 -20 21 -17 21 -19 6 -20 -10
0 -26 13 -35 30 -9 16 -23 29 -29 27 -19 -3 -120 111 -126 141 -2 15 -7 34
-11 43 -5 10 1 20 19 29 14 7 25 17 25 22 0 5 -11 1 -25 -8 -14 -9 -25 -12
-25 -6 0 6 -16 26 -35 46 -19 20 -31 36 -27 36 4 0 13 -5 20 -12 8 -8 12 -9
12 -1 0 19 -32 46 -39 34 -4 -7 -21 1 -43 19 l-35 29 -11 -23 c-7 -15 -20 -24
-34 -25 -46 -1 -98 -13 -108 -26 -6 -7 -7 -21 -2 -34 l8 -22 29 26 c17 14 36
23 43 20 13 -5 51 12 65 30 5 6 6 1 2 -11 -4 -15 2 -26 21 -40 15 -10 35 -28
46 -39 18 -19 18 -20 -4 -37 l-23 -19 30 7 30 7 -22 -22 c-12 -11 -27 -21 -33
-21 -5 0 -10 -4 -10 -9 0 -5 -19 -7 -42 -4 -30 5 -51 16 -80 45 -21 21 -44 38
-50 38 -7 0 6 -18 30 -39 26 -24 40 -44 37 -54 -5 -11 0 -13 22 -9 31 5 30 4
-9 -21 -27 -17 -29 -16 -48 3 -15 15 -20 16 -20 5 0 -8 9 -19 21 -26 24 -12
16 -25 -21 -34 -20 -5 -34 3 -73 41 -38 36 -53 45 -70 39 -53 -16 -95 -21
-116 -13 -20 7 -22 5 -17 -15 3 -12 3 -16 0 -9 -3 6 -11 9 -17 5 -7 -4 -18 -8
-26 -10 -19 -2 -55 33 -46 46 3 6 2 11 -4 11 -5 0 -14 -8 -20 -17 -5 -10 -12
-17 -15 -15 -3 1 -6 -1 -5 -5 2 -12 -32 -24 -51 -18 -11 4 -20 2 -20 -4 0 -6
-10 -11 -22 -10 -22 0 -22 1 -3 9 19 7 18 8 -5 14 -14 3 -49 7 -78 9 -29 2
-57 9 -61 16 -6 9 -10 4 -14 -16 -3 -15 -1 -34 5 -40 13 -16 3 -17 -23 -3 -24
13 -24 6 -2 -20 18 -20 50 -29 38 -10 -3 6 -1 10 4 10 6 0 11 -4 11 -10 0 -5
9 -10 19 -10 24 0 32 -12 21 -30 -7 -12 -11 -12 -25 0 -19 16 -67 20 -62 5 2
-5 14 -9 27 -7 12 2 20 -1 16 -6 -7 -12 27 -22 75 -22 32 0 92 -29 62 -30 -7
0 -13 -7 -13 -15 0 -8 -5 -15 -11 -15 -5 0 -7 -4 -4 -10 3 -5 15 -10 26 -10
10 0 19 -4 19 -10 0 -5 -4 -10 -8 -10 -4 0 -15 -13 -25 -29 -13 -22 -14 -30
-5 -34 8 -3 6 -6 -4 -6 -27 -1 -22 -20 7 -27 25 -6 35 -24 14 -24 -8 0 -8 -5
1 -15 7 -8 17 -12 23 -8 6 4 8 0 4 -9 -3 -9 2 -23 13 -33 10 -9 21 -30 24 -47
7 -37 57 -138 68 -138 4 0 3 12 -3 26 -5 15 -7 29 -4 32 3 4 8 -4 12 -16 3
-12 9 -22 14 -22 4 0 18 -10 30 -22 l21 -23 -7 23 c-8 28 9 29 32 2 10 -11 23
-20 30 -20 7 0 -14 27 -48 61 l-61 61 22 23 c17 18 20 27 11 43 -8 14 -7 24 4
38 8 11 15 27 15 37 0 16 2 17 15 3 8 -8 15 -18 15 -23 0 -4 17 -19 37 -33 59
-40 130 -102 250 -218 19 -19 37 -31 40 -29 3 3 -26 36 -64 74 -38 37 -87 90
-108 118 -22 27 -48 58 -58 68 -10 10 -16 25 -13 32 3 9 0 12 -10 8 -9 -3 -14
2 -14 15 0 22 -20 42 -20 20 0 -8 -5 -6 -11 5 -6 10 -8 24 -5 32 3 8 0 16 -7
18 -7 2 -9 7 -6 11 10 11 39 -5 39 -21 0 -9 6 -13 15 -9 8 3 15 2 15 -2 0 -4
26 -34 58 -68 31 -33 80 -85 109 -117 33 -36 57 -55 66 -51 8 3 18 1 22 -5 3
-6 11 -11 17 -11 6 0 1 11 -13 26 -21 22 -21 24 -4 18 18 -7 19 -6 6 9 -8 10
-16 15 -19 12 -3 -2 -11 3 -18 13 -8 10 -13 12 -14 5 0 -7 -5 -13 -12 -13 -9
0 -9 3 0 12 9 9 5 19 -20 45 -17 18 -29 35 -26 38 3 3 21 -11 39 -32 19 -21
59 -56 89 -78 54 -39 72 -56 66 -63 -2 -2 -16 8 -31 22 -16 15 -33 26 -39 26
-6 0 5 -14 24 -30 19 -16 41 -27 48 -25 8 3 41 -20 75 -50 34 -30 63 -52 65
-50 6 6 -158 161 -165 155 -3 -3 -3 3 0 13 4 10 3 16 -2 13 -5 -3 -16 6 -26
20 -35 53 -142 166 -173 183 -12 6 -22 17 -22 23 0 6 6 6 16 -3 13 -10 17 -10
26 2 8 11 9 11 5 -3 -3 -9 1 -19 9 -22 8 -3 14 -12 14 -21 0 -8 3 -15 8 -15 7
0 74 -62 212 -193 77 -75 77 -66 0 24 -25 29 -38 50 -30 45 9 -4 7 -1 -2 7
-17 13 -25 37 -13 37 3 0 29 -24 58 -52 29 -29 68 -66 87 -83 32 -29 32 -27
-8 21 -23 28 -48 57 -57 64 -8 7 -13 16 -10 20 3 5 0 12 -6 16 -8 5 -9 3 -4
-7 5 -8 -10 6 -32 31 -23 25 -40 47 -38 48 12 12 148 -105 208 -179 21 -26 24
-28 11 -6 -25 41 -13 41 29 1 20 -20 37 -31 37 -25 0 5 -25 29 -55 52 -60 45
-93 87 -59 75 18 -6 18 -5 0 9 -11 8 -27 15 -36 15 -24 0 -31 10 -20 29 10 19
-4 50 -17 38 -4 -5 -2 -12 6 -16 10 -6 9 -10 -4 -14 -11 -5 -14 -3 -9 5 5 8 2
9 -9 5 -9 -3 -19 -1 -23 5 -4 6 -3 8 4 4 5 -3 12 -1 14 6 4 11 -99 118 -114
118 -4 0 -8 7 -8 15 0 20 16 19 32 -3 7 -10 23 -25 34 -33 51 -35 166 -150
124 -124 -16 10 -11 -1 7 -16 11 -10 14 -10 9 -1 -13 21 8 12 44 -20 19 -17
28 -27 20 -23 -8 4 10 -18 40 -49 30 -31 56 -56 57 -56 9 0 0 12 -29 39 -18
17 -30 32 -27 35 3 3 25 -12 49 -34 83 -75 55 -40 -52 66 -60 58 -108 109
-108 114 0 4 -29 38 -65 75 -50 51 -71 66 -86 62 -16 -4 -18 -3 -8 9 6 8 15
14 19 14 4 0 37 -29 74 -63 36 -35 69 -61 73 -58 5 3 5 2 0 -3 -4 -5 14 -29
40 -53 27 -24 60 -55 76 -69 15 -14 25 -29 23 -33 -3 -4 16 -28 42 -52 l47
-44 -40 43 c-44 47 -38 57 9 15 17 -15 -4 9 -46 52 -95 97 -96 99 -81 94 7 -2
45 -35 85 -74 40 -38 63 -58 51 -44 -34 38 -28 47 9 13 l33 -29 -25 29 c-14
16 -36 41 -50 56 -14 15 -33 40 -44 55 -14 21 -20 24 -27 14 -7 -11 -9 -10 -9
4 0 10 -7 20 -15 23 -18 7 -58 70 -53 84 2 5 28 -13 58 -41 30 -28 73 -67 95
-87 22 -20 40 -41 40 -47 0 -5 5 -10 10 -11 23 -2 44 -17 38 -27 -3 -6 -1 -7
6 -3 19 12 10 22 -165 182 -49 45 -105 95 -124 112 -25 22 -32 34 -24 41 7 8
32 -11 85 -66 75 -78 208 -206 242 -232 15 -12 17 -11 17 8 0 12 -9 29 -20 38
-11 10 -20 22 -20 28 0 5 11 -2 24 -17 13 -15 27 -24 30 -21 4 4 -6 19 -21 35
-36 38 -25 35 44 -11 75 -49 128 -76 118 -60 -5 7 -4 10 3 5 6 -3 12 3 15 16
l4 23 2 -23 c1 -26 -38 -68 -84 -88 -16 -7 -27 -13 -23 -14 4 0 -11 -17 -34
-37 -67 -62 -87 -84 -100 -113 -8 -20 -30 -37 -71 -55 -32 -15 -81 -50 -110
-77 -29 -27 -64 -56 -79 -64 -16 -8 -28 -19 -28 -24 0 -5 -30 -23 -67 -41 -38
-18 -79 -40 -93 -50 -14 -10 -60 -24 -102 -30 -89 -13 -104 -28 -25 -23 28 1
42 0 30 -2 -13 -3 -23 -10 -23 -16 0 -5 -8 -7 -17 -4 -9 4 -19 2 -23 -4 -4 -6
-33 -15 -66 -20 -48 -7 -155 -37 -234 -67 -24 -9 -80 -11 -80 -2 0 4 33 15 73
23 70 16 202 65 194 72 -2 2 -39 -7 -83 -21 -43 -14 -124 -35 -178 -46 -150
-30 -395 -113 -411 -139 -3 -4 -17 -11 -32 -15 -16 -3 -45 -19 -65 -36 -20
-16 -40 -29 -43 -29 -4 0 -21 -11 -39 -25 -18 -14 -36 -25 -39 -25 -26 0 -295
-148 -326 -179 -11 -11 -27 -21 -34 -21 -6 0 -23 -10 -37 -21 -14 -11 -57 -42
-96 -69 -72 -50 -98 -79 -109 -123 -9 -32 -28 -49 -95 -85 -30 -15 -80 -42
-111 -60 -54 -30 -225 -94 -340 -126 -55 -15 -136 -65 -249 -152 -30 -23 -71
-47 -91 -53 -34 -11 -81 -58 -108 -108 -6 -12 -31 -31 -55 -41 -23 -11 -53
-34 -65 -51 -12 -17 -31 -31 -42 -31 -11 0 -32 -6 -47 -14 -16 -8 -58 -24 -95
-36 -54 -18 -74 -30 -106 -68 -48 -57 -169 -122 -286 -153 -44 -11 -111 -31
-150 -44 -38 -13 -97 -27 -130 -30 -33 -3 -76 -8 -95 -11 -19 -3 -54 -7 -77
-9 -26 -2 -72 -20 -115 -44 -74 -40 -94 -45 -251 -56 -104 -8 -221 -30 -260
-51 -95 -49 -138 -69 -190 -85 -32 -10 -87 -36 -122 -59 -70 -45 -117 -57
-192 -45 -46 7 -47 7 -23 20 24 13 22 14 -25 13 -28 0 -51 4 -53 11 -5 14 -69
15 -77 1 -3 -5 -14 -10 -23 -10 -10 0 -35 -9 -57 -20 -47 -24 -61 -25 -69 -5
-3 9 0 15 9 15 18 0 18 5 5 31 -6 10 -18 19 -28 18 -14 0 -14 -2 3 -9 18 -8
17 -9 -7 -9 -16 -1 -28 4 -28 9 0 14 -33 13 -48 -2 -9 -9 -17 -9 -34 -1 -37
18 -71 23 -84 13 -15 -13 -6 -60 12 -60 8 0 14 -5 14 -11 0 -6 -7 -8 -15 -5
-8 3 -22 9 -31 13 -14 5 -13 2 2 -16 18 -21 24 -21 133 -15 93 6 113 5 109 -6
-4 -14 -52 -29 -153 -51 -27 -6 -89 -10 -137 -10 l-88 1 0 -525 0 -525 3800 0
3800 0 0 2420 c0 1656 -3 2420 -10 2420 -6 0 -14 -8 -17 -17z m-2052 -588 c13
-19 28 -35 32 -35 5 0 5 -5 2 -11 -4 -6 -14 -8 -22 -5 -8 3 -11 1 -8 -4 3 -6
-4 -10 -17 -10 -13 0 -29 -5 -36 -12 -8 -8 -15 -8 -28 3 -16 12 -17 12 -11 -3
7 -20 -8 -25 -17 -5 -3 6 -4 3 -3 -8 1 -15 -3 -20 -18 -18 -19 1 -19 0 3 -17
21 -18 31 -37 13 -25 -5 3 -8 -8 -6 -24 3 -24 0 -30 -19 -33 -24 -5 -56 12
-56 29 0 5 -16 24 -35 43 -19 19 -35 29 -35 23 0 -7 8 -18 18 -25 11 -7 24
-23 30 -34 10 -18 9 -23 -8 -27 -11 -3 -21 1 -24 9 -3 8 -13 14 -21 14 -9 0
-14 4 -10 9 3 5 1 12 -5 16 -6 4 -8 11 -5 16 3 5 0 6 -8 3 -20 -7 -43 56 -25
68 7 4 16 8 19 8 4 0 9 8 11 18 4 14 18 20 58 25 30 4 58 11 64 17 5 5 20 10
32 10 13 0 25 3 27 8 3 4 23 8 45 10 35 2 42 -1 63 -33z m-641 -1131 c-28 -12
-32 -17 -20 -25 11 -8 9 -9 -10 -3 -14 3 -22 3 -17 -1 9 -10 -59 -74 -93 -87
-23 -9 -24 -10 -7 -22 24 -18 21 -30 -13 -56 -35 -27 -39 -45 -9 -37 19 5 19
4 6 -16 -13 -20 -21 -22 -112 -19 -59 1 -112 -3 -132 -10 -27 -10 -38 -10 -54
0 -17 11 -20 10 -17 -1 5 -22 -63 -77 -95 -77 l-28 0 21 -22 c23 -25 25 -34 9
-44 -8 -5 -8 -9 1 -14 17 -11 3 -30 -21 -30 -13 0 -18 -4 -13 -12 5 -8 2 -9
-10 -5 -25 10 -60 -11 -47 -27 10 -12 1 -31 -44 -92 -15 -20 -15 -22 2 -20 12
0 19 -7 21 -21 4 -24 -13 -32 -21 -10 -3 7 -6 5 -6 -5 -1 -10 -5 -18 -11 -18
-5 0 -10 -7 -10 -15 0 -8 8 -15 18 -15 15 -1 15 -2 -2 -12 -11 -6 -36 -11 -57
-11 -21 0 -40 -5 -43 -12 -2 -6 -18 -11 -35 -10 -17 1 -31 -3 -31 -9 0 -6 -5
-3 -11 7 -5 9 -22 18 -37 18 -21 1 -22 2 -7 6 11 3 24 9 30 14 5 5 32 9 60 10
46 1 48 1 20 10 -16 5 -38 7 -47 5 -10 -2 -21 0 -24 5 -3 5 -12 9 -21 9 -13 0
-14 -2 -2 -17 12 -15 12 -16 -3 -10 -10 3 -18 2 -18 -4 0 -6 -5 -7 -10 -4 -6
4 -7 11 -4 17 5 7 2 8 -7 2 -23 -15 -69 -11 -69 6 1 15 130 86 130 72 0 -7
-31 -30 -60 -44 -8 -5 1 -5 20 -2 38 7 60 20 60 37 0 6 26 35 57 64 31 29 54
56 50 59 -7 8 -37 -20 -37 -35 0 -6 -3 -10 -7 -9 -15 3 -43 -14 -43 -27 0 -7
-8 -15 -19 -18 -16 -4 -17 -1 -11 30 5 19 10 36 12 37 1 2 37 26 79 54 42 28
79 58 83 67 3 9 30 27 60 40 30 13 58 30 63 38 4 7 29 24 56 37 26 13 47 27
47 30 0 8 119 64 193 91 26 10 70 36 96 58 53 44 114 75 126 63 5 -4 5 -2 2 5
-9 15 51 53 83 52 22 0 21 -1 -10 -15z m-1247 -900 c8 -9 -31 -44 -50 -44 -9
0 -13 -3 -9 -7 9 -10 -71 -33 -119 -34 -35 0 -126 -26 -101 -28 5 -1 0 -11
-11 -23 -12 -13 -23 -32 -25 -43 -2 -11 -13 -21 -25 -23 -11 -2 -23 -12 -26
-23 -5 -19 -18 -22 -87 -18 -19 1 -49 2 -67 2 -41 1 -34 12 25 41 26 12 65 33
87 46 77 45 115 60 202 81 47 11 109 34 137 50 54 31 59 32 69 23z m-1203
-631 c-26 -19 -35 -21 -91 -27 -74 -9 -119 -26 -119 -46 0 -13 6 -18 19 -15
14 2 18 -1 15 -10 -4 -9 -16 -12 -38 -8 -22 3 -38 0 -48 -11 -11 -10 -30 -14
-62 -12 -26 1 -49 -1 -52 -6 -9 -14 -24 -9 -18 7 4 8 1 15 -5 15 -6 0 -11 -5
-11 -11 0 -8 -22 -10 -75 -5 -48 4 -91 2 -118 -5 -48 -14 -97 -54 -97 -80 0
-22 -36 -31 -51 -13 -9 11 -6 16 15 24 14 5 26 16 26 25 0 8 5 15 12 15 6 0
19 6 27 14 30 27 115 44 217 43 92 0 105 3 179 35 96 42 134 54 198 63 26 4
47 11 47 16 0 5 12 9 27 9 l27 0 -24 -17z"/>
<path d="M2755 4711 c19 -13 46 -21 72 -21 44 0 127 -36 118 -51 -3 -4 -13 -6
-23 -3 -9 3 -1 -3 20 -14 20 -11 48 -22 62 -26 14 -3 26 -11 26 -16 0 -13 -2
-13 -57 9 -26 10 -64 21 -83 25 l-35 6 24 -17 c14 -9 38 -18 54 -20 16 -2 36
-8 45 -14 13 -8 8 -9 -21 -4 -24 4 -37 3 -33 -3 9 -14 88 -32 148 -33 46 0
115 -16 81 -18 -7 -1 -13 -10 -13 -21 0 -17 -5 -19 -25 -14 -20 5 -25 2 -25
-13 0 -11 -9 -28 -20 -38 -11 -10 -20 -15 -20 -12 0 4 -9 -1 -20 -10 -11 -10
-20 -22 -20 -28 0 -16 123 -36 320 -50 52 -4 136 -16 185 -27 50 -10 103 -22
118 -25 16 -3 31 -12 34 -19 3 -8 13 -14 22 -14 22 0 201 -117 201 -132 0 -22
94 -82 116 -74 7 3 45 -30 84 -72 108 -116 110 -118 110 -144 0 -28 28 -117
43 -135 6 -9 6 -17 -1 -25 -8 -10 -3 -13 21 -13 18 0 43 -5 57 -12 14 -7 31
-13 38 -13 7 0 10 -5 6 -12 -4 -7 -3 -8 4 -4 7 4 12 10 12 14 0 4 -33 41 -73
83 -65 67 -77 85 -97 150 -13 41 -31 99 -41 129 -10 30 -21 83 -25 118 -3 34
-14 73 -24 85 -9 12 -23 38 -30 57 -15 38 -52 93 -85 125 -11 11 -35 40 -53
64 -33 46 -45 50 -16 6 9 -14 13 -25 9 -25 -11 0 -35 27 -44 52 -7 17 -10 19
-10 6 -1 -27 -18 -22 -35 10 -8 15 -15 24 -16 19 0 -4 -12 1 -27 10 -15 10
-24 13 -20 7 4 -7 -1 -14 -13 -17 -19 -5 -24 12 -7 24 5 3 2 9 -7 12 -9 4 -16
2 -16 -3 0 -6 -9 -10 -20 -10 -11 0 -20 5 -20 10 0 6 5 10 11 10 23 0 -4 19
-49 35 -26 10 -62 24 -81 32 -19 9 -43 15 -55 14 -73 -5 -98 -5 -156 2 -73 8
-164 36 -119 37 14 0 29 -4 35 -10 5 -5 22 -6 38 -2 42 11 -139 36 -270 36
-71 1 -106 5 -118 15 -10 9 -44 15 -89 16 -40 1 -85 5 -102 9 l-30 8 30 -21z"/>
<path d="M6525 4629 c-4 -5 21 -36 54 -67 34 -32 61 -64 61 -71 0 -8 7 -23 17
-33 9 -10 13 -21 10 -25 -4 -4 -14 2 -22 13 -8 10 -15 14 -15 7 0 -6 5 -15 11
-18 6 -4 8 -13 5 -21 -3 -9 0 -11 12 -7 9 3 14 3 10 -1 -3 -4 16 -31 43 -59
27 -29 49 -55 49 -59 0 -5 5 -8 10 -8 18 0 11 15 -25 50 -19 19 -35 41 -35 48
0 6 -7 12 -15 12 -8 0 -15 9 -15 21 0 11 5 17 10 14 6 -4 8 -11 5 -16 -4 -5
-1 -9 4 -9 6 0 11 8 12 18 0 13 3 12 11 -5 6 -13 14 -23 17 -23 3 0 18 -11 34
-24 19 -16 25 -29 21 -42 -5 -16 -4 -17 5 -4 10 13 13 13 26 -4 8 -11 18 -16
22 -13 6 7 -20 35 -204 225 -40 42 -73 79 -73 85 0 5 -7 7 -15 4 -8 -4 -17 -2
-20 3 -3 4 1 11 7 13 9 4 10 6 1 6 -6 1 -15 -4 -18 -10z"/>
<path d="M4916 4056 c9 -29 9 -28 0 -56 -10 -27 -31 -52 -39 -44 -3 3 -4 -2
-3 -11 1 -17 -13 -28 -47 -39 -17 -5 -17 -7 0 -33 13 -19 14 -28 5 -31 -6 -2
-12 -8 -12 -12 0 -5 12 -2 28 6 15 7 39 14 54 14 15 0 30 5 33 10 3 6 15 10
26 10 30 0 15 -15 -30 -30 -23 -7 -41 -17 -41 -22 0 -12 34 -10 50 5 12 10 12
9 2 -4 -7 -9 -25 -19 -41 -21 -23 -3 -27 -1 -23 14 3 12 -1 18 -11 18 -12 0
-15 -9 -13 -35 1 -23 -2 -35 -10 -35 -7 0 -15 -6 -17 -12 -3 -7 -6 -3 -6 9 -1
12 4 25 9 28 12 8 13 25 1 25 -5 0 -11 -10 -14 -21 -4 -14 -11 -20 -21 -16 -8
3 -20 -1 -27 -9 -7 -9 -21 -13 -31 -10 -11 2 -22 -2 -25 -10 -3 -8 -11 -14
-19 -14 -8 0 -14 -7 -14 -16 0 -11 -6 -14 -21 -9 -15 5 -19 4 -15 -4 4 -6 14
-11 23 -11 9 0 25 -8 35 -17 17 -15 18 -15 13 0 -5 12 0 18 19 23 14 3 31 4
38 1 7 -2 23 0 35 4 13 5 25 4 28 -2 4 -5 11 -7 16 -4 5 4 9 1 9 -5 0 -7 6
-10 13 -7 6 2 11 10 9 17 -2 7 3 10 12 7 8 -3 17 1 20 10 4 8 13 13 21 9 23
-8 65 37 65 70 l1 29 16 -30 c10 -16 16 -34 15 -38 -1 -5 2 -6 8 -2 11 7 26
-6 53 -45 9 -13 17 -20 17 -15 0 6 -7 19 -15 29 -17 23 -20 56 -5 56 6 0 10
-4 10 -9 0 -4 14 -24 31 -42 30 -33 30 -33 12 -4 -10 17 -23 36 -30 43 -7 7
-14 21 -15 30 -4 45 -3 58 7 64 6 5 4 8 -5 8 -12 0 -64 95 -60 109 1 2 -2 7
-7 10 -16 11 -63 78 -58 82 2 3 -12 5 -31 6 -31 1 -34 -2 -28 -21z"/>
<path d="M0 3621 c0 -258 1 -271 19 -271 10 0 24 -6 30 -14 7 -8 20 -14 29
-14 9 1 46 -8 82 -19 69 -22 171 -45 285 -63 39 -7 88 -16 110 -20 39 -9 82
-15 305 -45 268 -36 497 -105 500 -150 0 -5 17 -20 38 -33 54 -32 71 -43 128
-79 29 -18 65 -37 80 -43 50 -19 239 -114 242 -122 2 -4 13 -8 24 -8 11 0 22
-8 25 -20 3 -11 11 -20 18 -20 19 0 48 -38 42 -55 -4 -8 -1 -14 6 -12 7 1 11
-6 9 -15 -1 -9 6 -19 16 -22 20 -7 44 -54 62 -121 7 -29 20 -46 45 -63 19 -12
35 -29 35 -38 0 -14 -3 -14 -15 -4 -13 11 -14 10 -9 -4 3 -9 13 -15 22 -14 11
2 23 -14 38 -52 21 -51 30 -60 121 -122 107 -72 120 -82 197 -146 73 -61 74
-62 84 -62 5 0 23 -14 41 -30 17 -17 31 -26 31 -20 0 16 -60 78 -98 101 -49
30 -99 82 -84 87 7 2 -1 14 -18 29 -17 13 -30 30 -30 37 0 7 -16 44 -35 83
-53 107 -49 112 41 57 71 -43 127 -65 175 -69 20 -1 45 -8 57 -14 29 -16 37
-14 21 6 -13 15 -11 16 11 10 14 -3 43 -9 65 -13 22 -4 51 -12 65 -19 31 -16
95 -27 157 -27 26 0 51 -4 54 -9 3 -6 32 -14 63 -18 32 -4 62 -14 67 -22 6
-11 11 -11 21 -1 9 9 9 12 -3 12 -9 0 -21 11 -28 24 -14 25 -40 29 -236 41
-38 2 -86 10 -105 18 -19 8 -57 18 -85 22 -110 15 -140 28 -270 115 -38 26
-85 55 -103 64 -64 33 -185 248 -222 394 -4 19 -15 41 -24 51 -9 10 -16 23
-16 30 0 6 -9 30 -21 53 -12 23 -24 62 -28 87 -4 26 -12 45 -18 44 -7 -2 -11
7 -11 20 1 12 1 38 0 57 l-2 35 -21 -32 c-12 -18 -22 -33 -23 -33 -1 0 -2 9
-3 20 -1 11 4 20 13 20 18 0 18 41 -1 66 -8 10 -15 31 -15 46 0 38 -17 44 -25
9 -3 -16 -15 -37 -26 -47 -19 -17 -20 -17 -17 17 2 19 7 37 11 40 5 3 7 19 5
35 l-4 29 -14 -27 c-14 -30 -37 -39 -25 -10 17 41 18 52 2 46 -9 -3 -16 -9
-16 -12 2 -15 -14 -52 -22 -52 -11 0 -12 14 -2 23 3 4 8 22 9 39 3 32 3 32
-12 13 -16 -19 -16 -19 -12 10 3 17 7 35 9 40 2 6 0 12 -6 14 -5 2 -25 -28
-44 -65 -20 -38 -37 -71 -38 -73 -2 -2 -6 -1 -9 2 -4 4 -2 13 5 20 6 8 12 34
13 58 0 24 5 54 9 66 6 15 4 23 -7 27 -31 12 -50 6 -66 -21 l-17 -28 3 40 c2
39 1 41 -58 73 -64 36 -126 89 -126 108 0 26 -41 22 -71 -6 -31 -31 -59 -31
-59 0 0 10 7 21 16 24 13 5 11 10 -10 30 -18 16 -43 25 -82 30 -31 4 -59 4
-62 1 -3 -3 2 -5 11 -5 10 0 17 -4 17 -10 0 -14 -41 -12 -69 4 -13 7 -32 11
-43 8 -10 -2 -24 0 -31 6 -17 13 -107 17 -162 6 -36 -6 -111 17 -108 34 4 15
-3 15 -29 1 -17 -9 -18 -13 -7 -20 11 -7 9 -9 -6 -9 -27 0 -49 15 -41 29 4 6
3 11 -3 11 -5 0 -11 -5 -13 -10 -2 -6 -32 -11 -67 -11 -49 -1 -68 3 -76 15 -9
11 -21 14 -43 10 -39 -8 -105 13 -98 31 3 9 -8 16 -35 20 -22 4 -43 4 -46 1
-4 -3 1 -6 10 -6 23 0 11 -23 -19 -37 -22 -10 -25 -10 -20 3 11 28 -5 44 -45
44 -21 0 -39 -5 -39 -10 0 -12 -71 -2 -80 10 -3 4 -30 10 -60 13 -30 3 -65 8
-77 12 l-23 7 0 -271z"/>
</g>
</svg>
