<?xml version="1.0" standalone="no"?>
<!DOCTYPE svg PUBLIC "-//W3C//DTD SVG 20010904//EN"
 "http://www.w3.org/TR/2001/REC-SVG-20010904/DTD/svg10.dtd">
<svg version="1.0" xmlns="http://www.w3.org/2000/svg"
 width="760.000000pt" height="896.000000pt" viewBox="0 0 760.000000 896.000000"
 preserveAspectRatio="xMidYMid meet">
<metadata>
Created by potrace 1.15, written by Peter Selinger 2001-2017
</metadata>
<g transform="translate(0.000000,896.000000) scale(0.100000,-0.100000)"
fill="#000000" stroke="none">
<path d="M794 5561 l1 -124 64 -20 c44 -13 59 -22 50 -28 -10 -6 -10 -9 -2 -9
7 0 14 -15 17 -32 3 -18 8 -908 10 -1978 3 -1070 10 -2053 15 -2185 5 -132 10
-409 11 -615 1 -206 4 -419 7 -472 l6 -98 43 0 c29 0 44 4 44 13 0 8 3 7 9 -3
7 -10 11 -1 14 30 l4 45 1 -42 c1 -24 6 -43 11 -43 9 0 6 185 -4 233 -2 9 2
17 7 17 7 0 8 75 4 233 -4 127 -8 897 -9 1710 -1 1030 -5 1473 -12 1463 -9
-12 -13 -9 -24 15 -7 17 -10 33 -7 36 3 4 6 -1 6 -10 0 -9 5 -17 10 -17 6 0
10 6 10 13 0 9 2 9 8 0 13 -21 2 1515 -13 1700 -2 15 -3 68 -4 119 -1 115 -10
112 -12 -5 l-2 -87 -23 27 c-13 16 -24 32 -24 36 0 5 -13 6 -29 2 -22 -5 -32
-2 -43 12 -13 19 -31 23 -43 11 -4 -4 -16 -1 -27 5 -16 9 -22 9 -25 0 -14 -40
-41 29 -46 117 -2 30 -3 -1 -3 -69z"/>
<path d="M2223 4632 c-26 -16 -33 -106 -33 -452 l0 -356 37 -16 c42 -19 53
-16 53 15 0 12 5 39 11 60 9 34 13 37 47 38 l37 1 -37 15 -38 16 0 156 c0 86
-4 163 -10 171 -5 9 -5 19 2 27 7 9 7 17 -1 27 -8 10 -9 16 -1 21 5 3 10 26
10 49 0 36 -5 47 -25 60 -31 20 -32 38 -2 51 19 8 22 19 25 68 l3 57 -33 0
c-18 0 -38 -4 -45 -8z"/>
<path d="M3043 4351 c2 -49 5 -55 27 -61 81 -24 111 -35 120 -44 10 -13 11
-78 7 -746 -2 -272 0 -506 4 -520 9 -30 9 -33 15 670 2 294 7 542 10 552 6 21
-16 108 -28 108 -5 0 -7 -4 -4 -9 4 -5 -3 -7 -15 -4 -14 4 -17 8 -9 13 20 12
0 32 -27 27 -16 -3 -28 2 -37 15 -7 10 -20 16 -28 13 -9 -4 -19 3 -26 17 -10
20 -11 15 -9 -31z"/>
<path d="M4648 4203 l-28 -4 0 -238 0 -237 59 -28 c57 -28 59 -30 65 -75 3
-25 6 -122 6 -216 0 -93 4 -249 10 -345 6 -96 13 -375 15 -620 3 -245 9 -659
15 -920 10 -496 19 -1121 20 -1372 l0 -148 50 0 50 0 0 493 c-1 736 -18 1695
-60 3212 -4 165 -9 346 -9 403 l-1 102 -82 -1 c-46 -1 -95 -4 -110 -6z"/>
<path d="M6283 4166 c-216 -71 -308 -336 -190 -549 19 -34 39 -47 167 -109
133 -64 149 -70 192 -65 69 8 140 49 191 109 57 67 72 98 87 176 33 167 -54
346 -206 421 -59 30 -177 38 -241 17z"/>
<path d="M1310 4070 c0 -22 3 -39 8 -38 7 2 79 -20 96 -30 4 -2 2 -9 -5 -14
-10 -7 -8 -8 6 -4 11 3 55 -7 97 -23 42 -17 92 -33 112 -36 20 -4 33 -11 30
-16 -3 -5 -2 -9 3 -10 27 -2 47 -9 57 -19 8 -9 3 -10 -19 -4 -42 10 -177 60
-225 83 -22 10 -40 15 -40 10 0 -5 4 -9 9 -9 5 0 11 -10 15 -23 3 -12 20 -31
38 -41 18 -11 36 -24 39 -29 4 -5 8 -107 9 -226 1 -119 6 -304 9 -411 l8 -195
1 298 c2 265 4 297 18 297 12 0 15 -7 10 -27 -3 -16 -3 -22 0 -15 10 23 31 12
39 -20 12 -50 14 -59 18 -108 5 -56 16 -93 31 -102 11 -7 23 -607 25 -1275 1
-244 0 -263 -16 -264 -10 0 1 -8 25 -17 33 -13 42 -21 38 -34 -5 -20 -3 -20
98 -38 75 -13 86 -13 86 1 0 5 -4 8 -9 5 -12 -8 -42 4 -36 14 3 4 -2 10 -10
14 -8 3 -15 12 -15 20 0 8 -9 22 -21 30 -13 9 -18 19 -14 27 5 8 4 10 -3 5 -8
-5 -12 3 -12 24 0 18 -4 29 -10 25 -5 -3 -10 -3 -10 2 0 4 -3 62 -5 128 -9
213 -12 1221 -4 1191 4 -16 9 -64 10 -107 1 -49 6 -76 12 -72 6 3 8 46 5 107
-2 55 -2 91 0 79 3 -24 18 -31 24 -13 2 6 3 -31 3 -81 0 -65 4 -93 13 -96 8
-3 12 9 12 41 0 34 4 46 15 46 11 0 15 11 15 40 0 29 4 40 15 40 13 0 15 -43
18 -307 1 -170 2 -11 2 351 l0 659 -45 15 c-25 7 -81 27 -124 43 -55 20 -83
26 -90 19 -7 -7 -3 -10 11 -10 12 0 29 -3 38 -6 13 -6 14 -9 3 -16 -8 -5 -2
-6 17 -3 26 5 27 5 12 -5 -11 -7 -31 -10 -45 -7 -82 17 -123 27 -139 36 -10 5
-26 12 -35 15 -20 6 -24 26 -5 26 6 -1 23 -7 37 -15 33 -19 49 -19 24 0 -17
13 -17 14 -2 15 9 0 20 -4 23 -10 3 -5 16 -10 28 -10 17 1 15 4 -13 16 -38 16
-293 104 -304 104 -3 0 -6 -18 -6 -40z"/>
<path d="M1304 3998 c-11 -17 -18 -719 -8 -717 22 4 34 -2 35 -18 0 -17 1 -17
7 -1 5 12 11 15 21 9 11 -7 16 -70 22 -318 15 -586 17 -799 12 -937 l-6 -138
-39 6 c-25 4 -37 3 -34 -3 4 -5 26 -13 50 -16 32 -5 46 -12 49 -26 3 -10 10
-19 16 -19 12 0 12 1015 1 1779 l-5 353 -58 22 c-32 12 -55 25 -51 29 4 4 5 7
1 7 -3 0 -9 -5 -13 -12z"/>
<path d="M3460 3201 c0 -12 9 -21 28 -26 46 -11 197 -69 200 -77 2 -5 8 -8 14
-8 5 0 16 -7 24 -15 17 -17 3 -20 -24 -5 -9 5 -43 16 -74 25 -32 8 -64 18 -71
21 -21 8 -26 -28 -19 -124 l7 -84 85 -28 c47 -15 95 -31 107 -34 21 -7 22 -4
26 56 2 35 5 -2 6 -82 2 -80 7 -212 11 -295 6 -122 7 -94 6 147 -1 163 2 294
6 292 4 -3 8 0 8 6 0 6 5 8 10 5 6 -3 10 1 10 10 0 9 5 13 10 10 6 -3 10 -1
10 4 0 6 5 11 10 11 6 0 10 -7 10 -16 0 -8 5 -12 10 -9 6 3 10 28 10 55 0 55
-13 68 -70 72 -17 1 -33 5 -36 9 -2 4 -13 5 -23 2 -17 -4 -225 62 -272 87 -16
9 -19 7 -19 -9z"/>
<path d="M5619 3205 c-3 -5 -4 -37 -3 -70 1 -33 5 -300 9 -592 6 -379 11 -533
19 -533 8 0 8 -3 0 -8 -13 -9 -6 -102 8 -102 7 0 6 -5 -1 -14 -13 -15 -10
-650 3 -663 3 -3 6 7 6 23 0 17 4 34 9 40 5 5 11 25 14 44 3 26 5 19 7 -25 l3
-60 7 60 c6 53 7 55 8 18 1 -24 7 -43 12 -43 6 0 10 -25 9 -57 0 -32 -3 -52
-6 -45 -2 6 -9 10 -14 6 -5 -3 -9 -2 -9 3 0 4 -4 14 -9 22 -8 12 -12 12 -26
-3 -10 -9 -14 -24 -11 -33 4 -9 9 -266 12 -572 3 -306 7 -566 10 -578 4 -20
11 -23 49 -23 l45 0 0 280 c0 180 4 280 10 280 6 0 10 -100 10 -280 l0 -280
140 0 140 0 -5 208 c-3 114 -10 482 -15 817 -6 336 -13 684 -16 775 -5 139
-11 639 -13 1161 l-1 126 -27 0 c-16 0 -41 4 -58 7 -16 4 -37 8 -45 9 -8 1
-25 8 -36 14 -12 7 -24 9 -28 6 -3 -3 -6 -1 -6 5 0 7 -18 15 -40 18 -22 4 -43
11 -46 15 -13 22 -32 6 -38 -30 -7 -48 -26 -64 -27 -24 l-1 28 -8 -25 c-8 -24
-8 -24 -9 6 -1 16 -5 34 -10 40 -5 5 -11 20 -13 34 -2 14 -6 21 -9 15z m302
-1905 c2 -24 2 -24 6 -2 4 19 6 20 19 8 16 -17 19 -97 4 -112 -9 -9 -17 -72
-24 -200 -2 -30 -5 -57 -8 -59 -3 -3 -10 32 -17 77 -14 97 -12 270 3 280 8 5
7 13 -1 27 -6 10 -9 22 -6 25 9 9 22 -15 24 -44z"/>
<path d="M6456 2990 c2 -74 8 -243 14 -375 31 -763 38 -988 46 -1650 3 -259 7
-476 10 -483 2 -8 4 -112 4 -233 1 -121 3 -226 7 -234 4 -11 22 -15 66 -15
l60 0 -7 488 c-3 268 -9 559 -11 647 -17 505 -25 852 -26 1105 -2 272 -11 508
-27 724 l-7 98 -38 15 c-21 9 -40 13 -43 10 -3 -3 -2 -54 4 -114 5 -59 6 -112
2 -116 -4 -5 -15 -1 -24 8 -13 13 -16 38 -17 118 0 56 -4 111 -9 122 -5 12 -6
-37 -4 -115z"/>
<path d="M3190 2764 c0 -65 -3 -187 -6 -271 -7 -167 4 -665 15 -659 7 5 4
1037 -4 1044 -3 3 -5 -48 -5 -114z"/>
<path d="M3530 2821 c0 -21 3 -66 6 -99 l7 -61 96 -31 c53 -18 101 -33 106
-35 9 -2 12 192 3 200 -5 5 -198 65 -208 65 -6 0 -10 -17 -10 -39z"/>
<path d="M330 2677 c0 -114 1 -116 68 -117 12 0 22 -4 22 -10 0 -5 8 -10 18
-11 10 0 12 -3 5 -6 -21 -8 -15 -29 8 -30 37 -3 48 -32 49 -128 0 -190 14
-464 22 -459 4 3 7 -32 6 -78 -1 -68 -2 -76 -8 -43 -6 30 -6 26 -2 -15 2 -30
4 -73 3 -95 0 -22 -3 -116 -5 -210 -4 -214 -3 -205 -23 -205 -16 -1 -16 -2 1
-15 19 -14 20 -38 27 -527 4 -282 5 -561 3 -620 -3 -62 -1 -108 4 -108 6 0 11
10 14 23 2 12 3 572 3 1244 0 673 3 1223 7 1223 7 0 11 -862 9 -1962 l-1 -528
75 0 75 0 -5 417 c-2 230 -5 789 -6 1243 -1 454 -5 875 -8 935 l-6 110 -140
33 c-77 18 -157 36 -177 39 l-38 6 0 -106z"/>
<path d="M4990 2467 c0 -541 13 -1347 22 -1347 6 0 8 269 6 673 -2 369 -1 711
2 759 5 81 6 86 23 73 17 -12 18 -56 23 -726 3 -393 7 -728 10 -746 4 -28 9
-32 55 -43 37 -9 53 -18 59 -35 9 -23 48 -35 119 -35 l33 0 -6 573 c-3 314 -9
672 -12 794 l-6 223 -42 11 c-41 11 -250 76 -273 86 -10 4 -13 -52 -13 -260z"/>
<path d="M3533 2559 c4 -30 7 -76 7 -104 l0 -50 98 -29 c132 -39 132 -39 132
-27 0 6 -4 11 -8 11 -4 0 -7 30 -6 67 2 37 -2 75 -7 85 -7 13 -6 18 3 18 25 1
-38 28 -117 50 -43 12 -86 25 -94 28 -12 4 -13 -4 -8 -49z"/>
<path d="M3543 2249 c3 -67 10 -104 18 -110 11 -7 84 -27 177 -49 31 -8 32 -7
32 22 0 16 -3 27 -7 25 -5 -3 -8 30 -8 74 0 75 -1 79 -25 89 -30 11 -171 50
-184 50 -5 0 -7 -43 -3 -101z"/>
<path d="M6150 2190 c0 -93 1 -100 20 -100 16 0 20 -7 20 -32 0 -18 5 -40 10
-48 7 -11 10 -3 10 28 0 24 4 41 9 38 15 -10 20 -105 31 -611 8 -332 16 -509
23 -528 10 -21 18 -27 42 -26 23 1 25 3 8 6 -16 3 -24 13 -27 36 -11 68 -16
281 -22 797 l-5 535 -27 3 c-26 3 -26 3 -7 -12 25 -20 9 -20 -44 -1 l-41 14 0
-99z"/>
<path d="M3543 2014 c4 -42 7 -89 7 -103 0 -24 6 -28 71 -45 39 -10 71 -16 72
-14 1 1 0 48 -3 103 l-5 100 -50 12 c-27 7 -61 15 -74 18 l-24 6 6 -77z"/>
<path d="M7030 1984 c0 -93 9 -154 22 -154 5 0 6 5 2 12 -4 6 -3 8 3 5 10 -6
25 -152 29 -282 17 -588 25 -733 40 -746 8 -6 14 -18 14 -25 0 -10 13 -14 48
-13 41 0 44 2 25 11 -13 6 -23 15 -23 20 0 4 -7 8 -16 8 -10 0 -14 6 -11 15 4
8 2 17 -3 20 -6 4 -10 77 -10 171 0 151 2 167 20 186 17 19 20 19 20 5 0 -9
-4 -17 -10 -17 -6 0 -9 -46 -8 -122 1 -68 3 -104 5 -80 3 30 9 42 20 42 12 0
14 -9 11 -39 -3 -40 15 -73 26 -46 3 8 1 187 -4 397 -5 211 -10 444 -10 518
l0 135 -78 23 c-42 12 -85 25 -94 28 -16 6 -18 -2 -18 -72z"/>
<path d="M3548 1731 l3 -100 35 -11 c20 -7 38 -9 41 -6 6 6 7 196 1 201 -2 2
-21 6 -43 9 l-40 7 3 -100z"/>
<path d="M4509 1747 c-1 -6 -1 -15 0 -19 2 -15 31 -920 41 -1288 6 -215 15
-389 20 -394 6 -6 10 -18 10 -28 0 -10 5 -18 11 -18 9 0 10 65 6 253 -9 332
-16 1146 -10 1082 2 -27 9 -55 14 -62 7 -7 9 -74 5 -180 -4 -131 -3 -147 4
-75 12 131 24 129 18 -3 -4 -108 -4 -109 8 -50 12 56 12 47 13 -130 0 -272 0
-275 11 -275 6 0 8 62 5 163 -3 89 -10 352 -17 584 l-11 422 -30 11 c-16 5
-33 8 -37 5 -5 -3 -20 -1 -34 5 -19 7 -26 6 -27 -3z"/>
</g>
</svg>
